<?xml version="1.0" standalone="no"?>
<!DOCTYPE svg PUBLIC "-//W3C//DTD SVG 1.1//EN" "http://www.w3.org/Graphics/SVG/1.1/DTD/svg11.dtd" >
<svg xmlns="http://www.w3.org/2000/svg">
<metadata></metadata>
<defs>
<font id="NeueRegular" horiz-adv-x="872" >
<font-face units-per-em="2048" ascent="1638" descent="-410" />
<missing-glyph horiz-adv-x="491" />
<glyph horiz-adv-x="0" />
<glyph horiz-adv-x="2048" />
<glyph unicode="&#xd;" horiz-adv-x="681" />
<glyph unicode=" "  horiz-adv-x="491" />
<glyph unicode="&#x09;" horiz-adv-x="491" />
<glyph unicode="&#xa0;" horiz-adv-x="491" />
<glyph unicode="!" horiz-adv-x="491" d="M176 0v209h139v-209h-139zM176 999v463h139v-463l-24 -618h-90z" />
<glyph unicode="&#x22;" horiz-adv-x="720" d="M145 971v491h123v-491h-123zM453 971v491h122v-491h-122z" />
<glyph unicode="#" horiz-adv-x="983" d="M6 463v90h238l41 319h-226v91h238l61 462h103l-62 -462h250l62 462h102l-61 -462h225v-91h-238l-41 -319h226v-90h-238l-61 -463h-103l62 463h-250l-62 -463h-102l61 463h-225zM346 553h250l41 319h-250z" />
<glyph unicode="$" horiz-adv-x="983" d="M59 399v41h131v-53q0 -131 67 -212t192 -89v602q-84 25 -136.5 47.5t-112.5 64.5q-116 82 -116 257.5t96 277t269 115.5v145h90v-145q346 -27 346 -389h-131q0 254 -215 278v-559q59 -20 81.5 -27.5t75 -29t75 -37.5t59 -47t52.5 -63q42 -90 42 -183 q0 -188 -102.5 -294.5t-282.5 -123.5v-170h-90v170q-390 23 -390 424zM215 1080q0 -108 61.5 -169t172.5 -100v528q-111 -12 -172.5 -81.5t-61.5 -177.5zM539 86q117 12 185.5 85t68.5 196t-64.5 183t-189.5 107v-571z" />
<glyph unicode="%" horiz-adv-x="1478" d="M109 1073q0 213 63.5 295t194.5 82t194.5 -82t63.5 -295t-63.5 -295t-194.5 -82t-194.5 82t-63.5 295zM219 1073q0 -287 147.5 -287t147.5 287t-147.5 287t-147.5 -287zM373 -25l628 1475h103l-629 -1475h-102zM854 352q0 213 63.5 295t194.5 82t194.5 -82t63.5 -295 t-63.5 -295t-194.5 -82t-194.5 82t-63.5 295zM965 352.5q0 -286.5 147.5 -286.5t147.5 286.5t-147.5 286.5t-147.5 -286.5z" />
<glyph unicode="&#x26;" horiz-adv-x="1099" d="M45 362q0 215 211 377l121 92q-168 221 -168 354.5t86 205t213 71.5t203.5 -74.5t76.5 -183t-55 -196.5t-203 -193l316 -442q49 121 53 276h123q0 -197 -102 -379l192 -270h-139l-129 178q-135 -203 -389 -203q-184 0 -297 111t-113 276zM176 360.5q0 -110.5 86 -192.5 t194.5 -82t194.5 51t129 133l-342 480q-145 -102 -203.5 -190.5t-58.5 -199zM332 1196q0 -113 137 -297q197 150 197 297q0 70 -47.5 117t-119 47t-119.5 -47t-48 -117z" />
<glyph unicode="'" horiz-adv-x="491" d="M184 971v491h123v-491h-123z" />
<glyph unicode="(" horiz-adv-x="454" d="M111 542.5q0 475.5 272 919.5h88q-238 -414 -238 -919.5t238 -919.5h-88q-272 444 -272 919.5z" />
<glyph unicode=")" horiz-adv-x="454" d="M-16 -377q238 414 237.5 920t-237.5 919h88q272 -444 272 -919.5t-272 -919.5h-88z" />
<glyph unicode="*" horiz-adv-x="684" d="M53 1219l27 86l217 -70v227h90v-227l217 70l27 -86l-215 -70l133 -184l-74 -54l-133 185l-133 -185l-74 54l133 184z" />
<glyph unicode="+" horiz-adv-x="1228" d="M96 467v102h467v467h103v-467h467v-102h-467v-467h-103v467h-467z" />
<glyph unicode="," horiz-adv-x="491" d="M164 -201q70 43 72 201h-60v209h139v-209q0 -227 -151 -283v82z" />
<glyph unicode="-" horiz-adv-x="681" d="M119 526v111h444v-111h-444z" />
<glyph unicode="." horiz-adv-x="491" d="M176 0v209h139v-209h-139z" />
<glyph unicode="/" horiz-adv-x="569" d="M-20 -25l499 1512h111l-500 -1512h-110z" />
<glyph unicode="0" horiz-adv-x="983" d="M84 713q0 172 17.5 298t61.5 229t126 156.5t202.5 53.5t202.5 -53.5t126 -156.5t61.5 -229t17.5 -298t-17.5 -298t-61.5 -229.5t-126 -157t-202.5 -53.5t-202.5 53.5t-126 157t-61.5 229.5t-17.5 298zM215 713q0 -346 63.5 -490.5t213 -144.5t213 144.5t63.5 490.5 t-63.5 490.5t-213 144.5t-213 -144.5t-63.5 -490.5z" />
<glyph unicode="1" horiz-adv-x="983" d="M139 1110v90q346 2 361 250h94v-1450h-123v1110h-332z" />
<glyph unicode="2" horiz-adv-x="983" d="M90 0q0 172 74 300t229 259l156 131q109 92 155 174t46 205t-71 201t-185 78q-255 -1 -267 -353h-131q4 215 106.5 335t303.5 120q160 0 267.5 -99.5t107.5 -293.5q0 -135 -51.5 -234.5t-188.5 -212.5l-158 -129q-121 -100 -179 -181t-75 -189h664v-111h-803z" />
<glyph unicode="3" horiz-adv-x="983" d="M78 387h131q0 -135 70.5 -222t198.5 -87t209 82t81 236.5t-78 230t-211 75.5h-96v103h68q131 0 202.5 70.5t71.5 199.5t-61.5 201t-177.5 72t-185.5 -76t-71.5 -223h-131q0 186 99.5 293.5t277.5 107.5t279.5 -96.5t101.5 -261.5q0 -125 -59.5 -212t-173.5 -116v-4 q127 -18 201.5 -113.5t74.5 -230.5q0 -201 -107.5 -321t-302 -120t-299 105.5t-112.5 306.5z" />
<glyph unicode="4" horiz-adv-x="983" d="M66 373v123l559 954h123v-967h170v-110h-170v-373h-123v373h-559zM176 483h449v758h-4z" />
<glyph unicode="5" horiz-adv-x="983" d="M84 371h131q0 -127 70.5 -210t200.5 -83t206 107.5t76 288t-71.5 278.5t-211.5 98q-86 0 -153.5 -42t-95.5 -126h-123l84 743h634v-110h-536l-64 -506l5 -4q39 76 115.5 111.5t164.5 35.5q174 0 278.5 -122.5t104.5 -352t-111.5 -366t-318.5 -136.5q-172 0 -278.5 104.5 t-106.5 291.5z" />
<glyph unicode="6" horiz-adv-x="983" d="M78 674q0 371 90 564q99 212 352 212q168 0 259 -93t95 -247h-131q-4 109 -64.5 173.5t-164.5 64.5q-154 0 -227.5 -154t-77.5 -506l4 -4q35 113 116 175.5t195 62.5q184 0 282.5 -123t98.5 -335t-102.5 -350.5t-300.5 -138.5q-236 0 -330 169t-94 530zM233 448.5 q0 -157.5 66 -264t205 -106.5t204.5 106.5t65.5 264t-65.5 264t-204.5 106.5t-205 -106.5t-66 -264z" />
<glyph unicode="7" horiz-adv-x="983" d="M84 1315v110h815v-110q-221 -272 -358.5 -636t-161.5 -679h-139q16 301 169.5 679t366.5 636h-692z" />
<glyph unicode="8" horiz-adv-x="983" d="M84 410q0 137 67.5 241.5t194.5 116.5v4q-102 27 -160.5 119t-58.5 201q0 172 100.5 265t265.5 93t264 -92t99 -266q0 -111 -57.5 -202t-161.5 -118v-4q127 -12 194.5 -116.5t67.5 -241.5q0 -203 -111.5 -319t-296 -116t-296 116t-111.5 319zM215 400q0 -138 71.5 -230 t205 -92t205 92t71.5 230t-71.5 230.5t-205 92.5t-205 -92.5t-71.5 -230.5zM258 1086q0 -120 60.5 -190.5t174.5 -70.5t173 71t59 190.5t-59.5 190.5t-174 71t-174 -71t-59.5 -191z" />
<glyph unicode="9" horiz-adv-x="983" d="M78 961.5q0 211.5 102.5 350t300.5 138.5q236 0 330 -169t94 -529q0 -371 -90 -564q-99 -213 -352 -213q-168 0 -259 93t-95 247h131q4 -109 64.5 -173t164.5 -64q154 0 227.5 153.5t77.5 505.5l-4 4q-35 -113 -116 -175t-195 -62q-184 0 -282.5 123t-98.5 334.5z M209 977q0 -158 65.5 -264.5t204.5 -106.5t205 106.5t66 264.5t-66 264.5t-205 106.5t-204.5 -106.5t-65.5 -264.5z" />
<glyph unicode=":" horiz-adv-x="491" d="M176 0v209h139v-209h-139zM176 817v209h139v-209h-139z" />
<glyph unicode=";" horiz-adv-x="491" d="M164 -201q70 43 72 201h-60v209h139v-209q0 -227 -151 -283v82zM176 817v209h139v-209h-139z" />
<glyph unicode="&#x3c;" horiz-adv-x="1228" d="M96 463v110l1037 480v-111l-914 -424l914 -424v-110z" />
<glyph unicode="=" horiz-adv-x="1228" d="M96 268v103h1037v-103h-1037zM96 666v102h1037v-102h-1037z" />
<glyph unicode="&#x3e;" horiz-adv-x="1228" d="M96 -16v110l914 424l-914 424v111l1037 -480v-110z" />
<glyph unicode="?" d="M49 1040q2 201 99.5 324t276.5 123t278.5 -98.5t99.5 -269.5t-133 -312l-88 -94q-63 -68 -89 -127.5t-26 -149.5v-57h-123v72q0 113 27.5 178t107.5 149l86 92q106 115 106.5 243t-63 199.5t-166.5 71.5q-262 0 -262 -344h-131zM336 0v209h139v-209h-139z" />
<glyph unicode="@" horiz-adv-x="1638" d="M63 731q0 313 233.5 534.5t549 221.5t522.5 -179.5t207 -449.5q0 -227 -155.5 -403t-329.5 -176q-61 0 -101.5 34.5t-38.5 104.5h-4q-143 -139 -276.5 -139t-208 80.5t-74.5 220.5q0 223 144.5 410.5t355.5 187.5q168 0 229 -170h4l51 135h117l-209 -602 q-27 -80 -26 -121q0 -51 55 -51q133 0 249 164.5t116 330.5q0 233 -182.5 383t-430.5 150q-297 0 -495.5 -196.5t-198.5 -471t201.5 -469t492.5 -194.5q168 0 324.5 76.5t238.5 205.5h123q-104 -172 -290.5 -272.5t-395.5 -100.5q-336 0 -566.5 221.5t-230.5 534.5zM498 590 q0 -209 176 -209q152 0 265.5 170t113.5 328q0 100 -42 148t-140 48t-188.5 -82t-137.5 -192.5t-47 -210.5z" />
<glyph unicode="A" horiz-adv-x="1024" d="M-2 0l432 1462h164l432 -1462h-139l-119 426h-512l-119 -426h-139zM285 537h454l-225 823h-4z" />
<glyph unicode="B" horiz-adv-x="1024" d="M115 0v1462h403q203 0 298 -97t95 -269q0 -113 -59 -202t-166 -116v-4q133 -27 202.5 -123t69.5 -241q0 -193 -117.5 -301.5t-324.5 -108.5h-401zM246 111h243q338 0 338 299t-338 299h-243v-598zM246 819h207q327 0 327 264q0 145 -73.5 207t-231.5 62h-229v-533z" />
<glyph unicode="C" horiz-adv-x="1062" d="M102 731q0 756 467 756q211 0 315.5 -128t104.5 -323h-131q0 154 -75.5 247t-213.5 93q-164 0 -250 -151.5t-86 -493.5t86.5 -493.5t249.5 -151.5q135 0 214 108.5t89 301.5h132q-14 -250 -126 -385.5t-309 -135.5q-467 0 -467 756z" />
<glyph unicode="D" horiz-adv-x="1099" d="M115 0v1462h352q305 0 417.5 -175t112.5 -556t-112.5 -556t-417.5 -175h-352zM246 111h213q221 0 314 135t93 485t-93 485.5t-314 135.5h-213v-1241z" />
<glyph unicode="E" horiz-adv-x="909" d="M115 0v1462h725v-110h-594v-533h555v-110h-555v-598h612v-111h-743z" />
<glyph unicode="F" d="M115 0v1462h725v-110h-594v-533h555v-110h-555v-709h-131z" />
<glyph unicode="G" horiz-adv-x="1099" d="M102 731q0 756 467 756q201 0 304.5 -117t115.5 -317h-131q0 139 -74.5 231t-226.5 92t-238 -151.5t-86 -493.5t86.5 -493.5t241.5 -151.5q313 0 313 518v31h-346v110h469v-745h-102v242h-4q-33 -121 -122 -194t-200 -73q-467 0 -467 756z" />
<glyph unicode="H" horiz-adv-x="1062" d="M115 0v1462h131v-622h571v622h131v-1462h-131v729h-571v-729h-131z" />
<glyph unicode="I" horiz-adv-x="376" d="M123 0v1462h131v-1462h-131z" />
<glyph unicode="J" horiz-adv-x="833" d="M39 369v59h131v-35q0 -154 45 -230.5t155 -76.5t164 63.5t54 231.5v1081h131v-1095q0 -190 -88 -291t-255 -101t-252 93.5t-85 300.5z" />
<glyph unicode="K" horiz-adv-x="983" d="M115 0v1462h131v-766h4l559 766h139l-446 -610l495 -852h-139l-438 741l-174 -229v-512h-131z" />
<glyph unicode="L" d="M115 0v1462h131v-1351h606v-111h-737z" />
<glyph unicode="M" horiz-adv-x="1404" d="M127 0v1462h227l353 -1298h4l352 1298h215v-1462h-131v1339h-4l-379 -1339h-123l-379 1339h-4v-1339h-131z" />
<glyph unicode="N" horiz-adv-x="1099" d="M115 0v1462h176l559 -1274h4v1274h131v-1462h-176l-559 1274h-4v-1274h-131z" />
<glyph unicode="O" horiz-adv-x="1138" d="M102 731q0 756 467 756t467 -756t-467 -756t-467 756zM233 731q0 -342 86.5 -493.5t250 -151.5t249.5 151.5t86 493.5t-86 493.5t-249.5 151.5t-250 -151.5t-86.5 -493.5z" />
<glyph unicode="P" horiz-adv-x="983" d="M115 0v1462h395q205 0 303 -109.5t98 -299.5t-105.5 -304t-340.5 -114h-219v-635h-131zM246 745h223q141 0 226 72t85 231.5t-77.5 231.5t-233.5 72h-223v-607z" />
<glyph unicode="Q" horiz-adv-x="1138" d="M102 731q0 756 467 756t467 -756q0 -403 -133 -588l150 -143l-72 -78l-147 144q-104 -90 -265 -91q-467 0 -467 756zM233 731q0 -342 86.5 -493.5t249.5 -151.5q111 0 185 66l-166 159l71 78l158 -153q88 160 88 498.5t-86 490t-249.5 151.5t-250 -151.5t-86.5 -493.5z " />
<glyph unicode="R" horiz-adv-x="1024" d="M115 0v1462h436q180 0 279.5 -97t99.5 -255q0 -333 -264 -385v-4q133 -12 189 -93t60 -253l5 -160q4 -152 61 -215h-154q-35 59 -39 205l-4 123q-6 199 -62 269.5t-228 70.5h-248v-668h-131zM246 778h225q158 0 243 73t85 214t-72 214t-242 73h-239v-574z" />
<glyph unicode="S" horiz-adv-x="983" d="M57 410v43h131v-56q0 -143 75 -227t218 -84t228.5 75t85.5 222q0 88 -39 148.5t-101.5 92t-138.5 56.5t-151.5 52.5t-138 68.5t-101.5 116.5t-39 182.5q0 174 107.5 280.5t295.5 106.5q398 -1 398 -400h-131q0 137 -65.5 213t-195.5 76t-204 -74.5t-74 -170t31 -152.5 t80 -88t113.5 -58.5t130 -45t130 -48t113.5 -68.5q111 -86 111 -280.5t-119 -305t-325 -110.5t-315.5 111t-109.5 324z" />
<glyph unicode="T" horiz-adv-x="909" d="M12 1352v110h885v-110h-377v-1352h-131v1352h-377z" />
<glyph unicode="U" horiz-adv-x="1024" d="M94 410v1052h131v-1050q0 -326 287 -326t287 326v1050h131v-1052q0 -225 -105.5 -330t-312.5 -105t-312.5 105t-105.5 330z" />
<glyph unicode="V" horiz-adv-x="946" d="M6 1462h139l326 -1323h4l326 1323h139l-385 -1462h-164z" />
<glyph unicode="W" horiz-adv-x="1478" d="M23 1462h131l256 -1286h4l250 1286h151l250 -1286h4l256 1286h131l-309 -1462h-164l-242 1286h-4l-241 -1286h-164z" />
<glyph unicode="X" horiz-adv-x="946" d="M-2 0l401 745l-374 717h139l311 -594l316 594h131l-377 -717l403 -745h-139l-340 629l-340 -629h-131z" />
<glyph unicode="Y" horiz-adv-x="909" d="M-6 1462h139l322 -729l321 729h139l-395 -876v-586h-131v586z" />
<glyph unicode="Z" horiz-adv-x="946" d="M45 0v123l713 1229h-672v110h805v-123l-701 -1228h711v-111h-856z" />
<glyph unicode="[" horiz-adv-x="493" d="M170 -377v1839h324v-102h-201v-1634h201v-103h-324z" />
<glyph unicode="\" horiz-adv-x="569" d="M-20 1487h110l500 -1512h-111z" />
<glyph unicode="]" horiz-adv-x="493" d="M0 -274h201v1634h-201v102h324v-1839h-324v103z" />
<glyph unicode="^" horiz-adv-x="1228" d="M90 498l473 927h103l473 -927h-111l-414 805l-413 -805h-111z" />
<glyph unicode="_" horiz-adv-x="1024" d="M0 -154h1024v-102h-1024v102z" />
<glyph unicode="`" horiz-adv-x="380" d="M-20 1511h145l154 -288h-99z" />
<glyph unicode="a" d="M61 283q0 240 220 301l231 65q66 18 85 49t19 123q0 188 -188 189q-209 0 -209 -246h-123q0 348 336 348q307 0 307 -289v-643q0 -90 64 -90h35v-90q-35 -12 -58 -12q-80 0 -118.5 27.5t-38.5 107.5v37h-5q-63 -184 -280 -185q-139 0 -208 81t-69 227zM193 290 q0 -95 46 -153.5t126 -58.5q115 0 183 82t68 225v229h-4q-14 -43 -131 -71l-102 -27q-94 -25 -140 -78t-46 -148z" />
<glyph unicode="b" horiz-adv-x="909" d="M106 0v1462h123v-538h4q20 88 87 138t167 50q348 0 349 -570q0 -566 -349 -567q-96 0 -168.5 55.5t-97.5 149.5h-4v-180h-111zM229 544.5q0 -145.5 18.5 -242.5t54.5 -143t74 -63.5t90 -17.5t90 17.5t75 63.5q74 92 74 386q0 291 -73 384q-63 81 -165 81q-53 0 -91 -17.5 t-74 -63.5t-54.5 -142.5t-18.5 -242z" />
<glyph unicode="c" horiz-adv-x="833" d="M61 545q0 281 96.5 424t264.5 143t254 -90t96 -258h-123q-10 127 -62 186.5t-159 59.5t-171 -100.5t-64 -366.5q0 -324 101 -419q32 -30 61.5 -38t68.5 -8h1q193 0 224 282h123q-14 -176 -105.5 -280.5t-240.5 -104.5q-365 0 -365 570z" />
<glyph unicode="d" horiz-adv-x="909" d="M74 543.5q0 568.5 348 568.5q100 0 166.5 -50t87.5 -138h4v538h123v-1462h-111v180h-4q-25 -94 -97.5 -149.5t-168.5 -55.5q-348 0 -348 568.5zM205 544q0 -144 18.5 -241.5t55 -143.5t74.5 -63.5t90 -17.5t90 17.5t74 63.5t54.5 143t18.5 242.5t-18.5 242t-54.5 142.5 t-73.5 63.5t-90 17.5t-91.5 -17.5t-74.5 -63.5t-54 -143.5t-18.5 -241.5z" />
<glyph unicode="e" d="M170 969q96 143 277.5 143t266.5 -128t85 -400v-45h-594v-52q0 -219 64.5 -314t166.5 -95h1q198 0 229 282h122q-14 -176 -106 -280.5t-244 -104.5q-364 0 -364 567q0 284 96 427zM205 641h463q-2 199 -58.5 284t-173.5 85t-173 -85t-58 -284z" />
<glyph unicode="f" horiz-adv-x="493" d="M14 985v102h150v130q0 129 47 195.5t190 66.5q45 0 78 -6v-103q-29 6 -59 6q-70 0 -101.5 -34.5t-31.5 -124.5v-130h192v-102h-192v-985h-123v985h-150z" />
<glyph unicode="g" horiz-adv-x="909" d="M74 545q0 567 348 567q90 0 157.5 -50t96.5 -142h4v167h111v-1009q0 -455 -357 -455q-154 0 -237.5 73t-85.5 193h122q0 -74 60.5 -118.5t159 -44.5t157 75.5t58.5 221.5v172h-4q-29 -96 -97.5 -145.5t-156.5 -49.5q-147 0 -241.5 123t-94.5 422zM205 556 q0 -249 58.5 -351.5t173 -102.5t173 102.5t58.5 351.5t-58.5 351.5t-173 102.5t-173 -102.5t-58.5 -351.5z" />
<glyph unicode="h" horiz-adv-x="909" d="M119 0v1462h123v-526h4q23 82 95.5 129t187 47t188.5 -71.5t74 -219.5v-821h-123v786q0 223 -187 224q-109 0 -174 -77t-65 -202v-731h-123z" />
<glyph unicode="i" horiz-adv-x="376" d="M127 0v1087h123v-1087h-123zM127 1253v209h123v-209h-123z" />
<glyph unicode="j" horiz-adv-x="376" d="M-53 -268q43 -6 47 -6q70 0 101.5 39.5t31.5 148.5v1173h123v-1214q0 -250 -236 -250q-37 0 -67 6v103zM127 1253v209h123v-209h-123z" />
<glyph unicode="k" horiz-adv-x="833" d="M106 0v1462h123v-915h4l422 540h152l-328 -403l387 -684h-151l-324 573l-162 -192v-381h-123z" />
<glyph unicode="l" horiz-adv-x="376" d="M127 0v1462h123v-1462h-123z" />
<glyph unicode="m" horiz-adv-x="1404" d="M127 0v1087h111v-151h4q84 176 276 176q96 0 155.5 -52t71.5 -138h5q78 190 276 190q119 0 185.5 -69.5t66.5 -211.5v-831h-123v813q0 197 -170 197q-94 0 -157.5 -78t-63.5 -201v-731h-123v813q0 197 -170 197q-94 0 -157.5 -78t-63.5 -201v-731h-123z" />
<glyph unicode="n" horiz-adv-x="909" d="M119 0v1087h110v-151h4q90 176 279 176q131 0 205 -71.5t74 -219.5v-821h-123v786q0 223 -187 224q-109 0 -174 -77t-65 -202v-731h-123z" />
<glyph unicode="o" d="M61 544.5q0 280.5 96.5 424t278.5 143.5t278.5 -143.5t96.5 -424t-96.5 -425t-278.5 -144.5t-278.5 144.5t-96.5 425zM193 544q0 -466 243.5 -466t243.5 466t-243.5 466t-243.5 -466z" />
<glyph unicode="p" horiz-adv-x="909" d="M106 -360v1447h111v-155h4q31 80 99.5 130t168.5 50q178 0 262.5 -141.5t84.5 -427.5q0 -567 -349 -568q-100 0 -166.5 50.5t-87.5 138.5h-4v-524h-123zM229 543q0 -291 73 -384q36 -46 74 -63.5t90 -17.5t91 17.5t75 63.5q73 93 73 373.5t-63.5 379t-170 98.5 t-172.5 -97q-70 -98 -70 -370z" />
<glyph unicode="q" horiz-adv-x="909" d="M74 543q0 287 84 428t262 141q100 0 168.5 -50t99.5 -130h4v155h111v-1447h-123v524h-4q-20 -88 -87 -138.5t-167 -50.5q-348 0 -348 568zM205 533q0 -280 67.5 -367.5t169.5 -87.5q53 0 91 17.5t74 63.5q73 93 73 374.5t-68 378.5t-174 98h-1q-105 0 -169 -98 q-63 -99 -63 -379z" />
<glyph unicode="r" horiz-adv-x="569" d="M119 0v1087h123v-169h4q35 92 107.5 143t166.5 51q20 0 43 -6v-123q-31 6 -59 6q-111 0 -186.5 -80t-75.5 -229v-680h-123z" />
<glyph unicode="s" horiz-adv-x="796" d="M63 313v35h123v-29q0 -241 207 -241h2q98 0 156.5 52t58.5 134t-33.5 130t-113.5 79l-172 68q-209 80 -209 249t88 245.5t236 76.5q299 0 299 -303v-31h-123v31q0 201 -179 201q-198 0 -198 -183q0 -65 30.5 -108t116.5 -76l178 -68q203 -76 203 -276q0 -145 -85 -234.5 t-254 -89.5t-250 79t-81 259z" />
<glyph unicode="t" horiz-adv-x="493" d="M14 985v102h150v302h123v-302h192v-102h-192v-780q0 -63 27.5 -89t75.5 -26t89 12v-102q-20 -12 -116.5 -12t-147.5 40.5t-51 149.5v807h-150z" />
<glyph unicode="u" horiz-adv-x="909" d="M119 266v821h123v-765q0 -131 45 -187.5t146 -56.5t168 76.5t67 201.5v731h123v-1087h-111v152h-4q-90 -176 -279 -177q-131 0 -204.5 72t-73.5 219z" />
<glyph unicode="v" horiz-adv-x="757" d="M14 1087h131l242 -948h4l221 948h131l-286 -1087h-140z" />
<glyph unicode="w" horiz-adv-x="1212" d="M20 1087h132l184 -964h4l197 964h151l184 -964h5l184 964h131l-242 -1087h-145l-197 965h-4l-196 -965h-146z" />
<glyph unicode="x" horiz-adv-x="757" d="M12 0l293 561l-280 526h139l215 -430l215 430h139l-280 -526l292 -561h-139l-227 467l-227 -467h-140z" />
<glyph unicode="y" horiz-adv-x="757" d="M14 1087h131l244 -942h4l219 942h131l-317 -1175q-43 -160 -103.5 -216t-185.5 -56q-33 0 -82 4v102q53 -4 96 -4q102 0 146 145l31 103z" />
<glyph unicode="z" horiz-adv-x="720" d="M37 0v102l516 883h-490v102h621v-102l-516 -883h516v-102h-647z" />
<glyph unicode="{" horiz-adv-x="493" d="M68 492v102q68 2 93 56t25 208v359q0 246 220 245h104v-102h-102q-98 0 -99 -139v-381q2 -266 -139 -295v-4q141 -29 139 -295v-381q0 -139 99 -139h102v-103h-104q-219 0 -220 246v358q0 154 -25.5 208t-92.5 57z" />
<glyph unicode="|" horiz-adv-x="454" d="M176 -25v1512h103v-1512h-103z" />
<glyph unicode="}" horiz-adv-x="493" d="M-16 -274h102q98 0 98 139v381q-2 266 140 295v4q-141 29 -140 295v381q0 139 -98 139h-102v102h104q219 0 219 -245v-359q0 -154 25.5 -208t93.5 -56v-102q-68 -2 -93.5 -56.5t-25.5 -208.5v-358q0 -246 -219 -246h-104v103z" />
<glyph unicode="~" horiz-adv-x="1228" d="M141 463q92 176 256 176q78 0 237 -70t203 -69q85 0 177 147l73 -74q-70 -96 -124 -136t-136 -40t-208.5 70t-231 70t-172.5 -148z" />
<glyph unicode="&#xa1;" horiz-adv-x="491" d="M176 111l25 618h90l24 -618v-463h-139v463zM176 901v209h139v-209h-139z" />
<glyph unicode="&#xa2;" horiz-adv-x="983" d="M135 545q0 266 88 409.5t252 157.5v170h62v-170q143 -8 222 -98t89 -250h-123q-18 227 -188 246v-932q162 35 188 282h123q-12 -164 -94 -267t-217 -118v-170h-62v170q-340 18 -340 570zM266 543q0 -276 64 -374q32 -48 66 -67.5t79 -23.5v932q-98 -14 -153.5 -118 t-55.5 -349z" />
<glyph unicode="&#xa3;" horiz-adv-x="983" d="M41 88q119 86 187.5 192.5t68.5 204t-43 183.5h-201v90h166l-69 133q-53 102 -54 196q0 168 119 265.5t300 97.5t287.5 -115t106.5 -303h-123q-16 315 -284 316q-119 0 -197 -67t-78 -174t82 -257l49 -92h310v-90h-275q35 -55 35 -150q0 -219 -240 -407l5 -5 q98 49 159 50q10 0 130.5 -35t158.5 -35q100 0 246 102l55 -94q-129 -119 -317 -119q-51 0 -161 39t-173.5 39t-186.5 -65z" />
<glyph unicode="&#xa4;" horiz-adv-x="983" d="M41 714q0 157 100 279l-96 97l72 73l96 -96q123 96 281 96t278 -98l96 98l72 -73l-96 -97q98 -121 98 -278.5t-96 -280.5l94 -96l-72 -76l-96 100q-123 -100 -280.5 -100t-280.5 98l-94 -98l-72 76l96 96q-100 123 -100 280zM152 712.5q0 -147.5 102 -247.5t237.5 -100 t237.5 100t102 247.5t-102 248t-237.5 100.5t-237.5 -100.5t-102 -248z" />
<glyph unicode="&#xa5;" horiz-adv-x="983" d="M31 1425h139l322 -704l321 704h139l-331 -710h223v-90h-264l-23 -50v-129h287v-90h-287v-356h-131v356h-287v90h287v129l-23 50h-264v90h223z" />
<glyph unicode="&#xa6;" horiz-adv-x="454" d="M176 -25v553h103v-553h-103zM176 934v553h103v-553h-103z" />
<glyph unicode="&#xa7;" horiz-adv-x="985" d="M72 685q0 93 62.5 173t148.5 113q-127 90 -127 226t99 213t250 77t237.5 -84t86.5 -221h-122q0 92 -58.5 147t-151.5 55t-151.5 -51t-58.5 -115.5t34.5 -108.5t122.5 -101l271 -177q111 -72 154.5 -139t43.5 -160.5t-54 -170t-138 -117.5q123 -98 123 -237.5t-91 -226.5 t-250 -87t-256 88t-97 223v41h122q0 -115 56.5 -182.5t161 -67.5t164 53.5t59.5 129.5t-38 128t-132 111l-246 158q-123 80 -174 148.5t-51 161.5zM195 698q0 -106 172 -219l270 -176q154 72 154 232q-1 100 -138 190l-293 190q-166 -90 -165 -217z" />
<glyph unicode="&#xa8;" horiz-adv-x="380" d="M-25 1266v209h123v-209h-123zM283 1266v209h123v-209h-123z" />
<glyph unicode="&#xa9;" horiz-adv-x="1638" d="M63 731q0 313 221.5 534.5t535 221.5t534.5 -221.5t221 -534.5t-221 -534.5t-534.5 -221.5t-535 221.5t-221.5 534.5zM166 731q0 -270 191.5 -461.5t462 -191.5t462 191.5t191.5 461.5t-191.5 461.5t-462 191.5t-462 -191.5t-191.5 -461.5zM387 733q0 209 121 342 t330 133q154 0 261 -83t128 -230h-111q-20 92 -94 151.5t-184 59.5q-162 0 -251 -105.5t-89 -264.5t94 -270.5t252 -111.5q106 0 180 62.5t92 158.5h111q-35 -145 -138.5 -234t-244.5 -89q-205 0 -331 136t-126 345z" />
<glyph unicode="&#xaa;" horiz-adv-x="567" d="M10 944q0 154 162 195l152 39q41 10 54 27.5t13 62.5t-33.5 68.5t-95.5 23.5t-95.5 -35t-33.5 -92h-102q0 109 56 163t183 54q223 0 224 -174v-379q0 -55 41 -55h22v-78q-29 -12 -70 -12q-92 0 -92 82v28h-4q-39 -111 -182 -110q-96 0 -147.5 54t-51.5 138zM121 956 q0 -49 29.5 -81.5t90 -32.5t105.5 48t45 132v106h-4q-8 -23 -84 -43l-67 -16q-115 -29 -115 -113z" />
<glyph unicode="&#xab;" horiz-adv-x="757" d="M117 520v123l256 285v-140l-183 -206l183 -207v-139zM385 520v123l256 285v-140l-182 -206l182 -207v-139z" />
<glyph unicode="&#xac;" horiz-adv-x="1228" d="M96 666v102h1037v-547h-103v445h-934z" />
<glyph unicode="&#xad;" horiz-adv-x="681" d="M119 526v111h444v-111h-444z" />
<glyph unicode="&#xae;" horiz-adv-x="1638" d="M63 731q0 313 221.5 534.5t535 221.5t534.5 -221.5t221 -534.5t-221 -534.5t-534.5 -221.5t-535 221.5t-221.5 534.5zM166 731q0 -270 191.5 -461.5t462 -191.5t462 191.5t191.5 461.5t-191.5 461.5t-462 191.5t-462 -191.5t-191.5 -461.5zM535 283v899h346 q293 0 293 -250q0 -211 -226 -250l266 -399h-122l-267 399h-188v-399h-102zM637 772h221q213 -4 213 162q0 158 -213 158h-221v-320z" />
<glyph unicode="&#xaf;" horiz-adv-x="380" d="M-53 1323v90h487v-90h-487z" />
<glyph unicode="&#xb0;" horiz-adv-x="819" d="M117 1157q0 121 86 207t206.5 86t206.5 -86t86 -207t-86 -207t-206.5 -86t-206.5 86t-86 207zM207 1157q0 -84 59.5 -143.5t143.5 -59.5t143 59.5t59 143.5t-59 143.5t-143 59.5t-143.5 -59.5t-59.5 -143.5z" />
<glyph unicode="&#xb1;" horiz-adv-x="1228" d="M96 0v102h1037v-102h-1037zM96 582v102h467v352h103v-352h467v-102h-467v-353h-103v353h-467z" />
<glyph unicode="&#xb2;" horiz-adv-x="638" d="M49 1174q4 276 281 276q113 0 184.5 -58.5t71.5 -160t-31 -160.5t-119 -125l-102 -76q-143 -104 -168 -206h424v-91h-535q0 106 47.5 183.5t149.5 158.5l100 80q70 53 96.5 102.5t26.5 118t-43 106.5t-112.5 38t-112.5 -48t-47 -138h-111z" />
<glyph unicode="&#xb3;" horiz-adv-x="638" d="M41 809h111q2 -61 46 -110.5t114.5 -49.5t122.5 45t52 125t-51 123t-137 43h-55v90h37q82 0 130 39t48 101.5t-39 103.5t-103.5 41t-108.5 -41t-46 -111h-111q0 113 66.5 177.5t191.5 64.5t192.5 -57.5t67.5 -145.5q0 -176 -151 -211v-4q84 -10 132 -67.5t48 -139.5 q0 -123 -71.5 -194.5t-211.5 -71.5q-264 0 -274 250z" />
<glyph unicode="&#xb4;" horiz-adv-x="380" d="M102 1223l154 288h145l-200 -288h-99z" />
<glyph unicode="&#xb6;" horiz-adv-x="985" d="M61 1076.5q0 173.5 106.5 279.5t281.5 106h372v-1745h-102v1655h-219v-1655h-103v967q-137 0 -236.5 109.5t-99.5 283z" />
<glyph unicode="&#xb7;" horiz-adv-x="491" d="M133 672q0 45 34 78.5t79 33.5t78.5 -33.5t33.5 -78.5t-33.5 -79t-78.5 -34t-79 34t-34 79z" />
<glyph unicode="&#xb8;" horiz-adv-x="380" d="M4 -377l25 64q61 -31 127 -31t101.5 25.5t35.5 63.5t-32 56.5t-83 18.5t-84 -21l-26 35l116 166h76l-88 -115l4 -2q23 10 79.5 10.5t102 -39.5t45.5 -109t-68.5 -116t-158.5 -47t-172 41z" />
<glyph unicode="&#xb9;" horiz-adv-x="638" d="M74 1229v74q229 2 239 147h93v-877h-111v656h-221z" />
<glyph unicode="&#xba;" horiz-adv-x="567" d="M18 1101q0 349 265.5 349t265.5 -349t-265.5 -349t-265.5 349zM129 1101q0 -132 43 -195.5t112 -63.5t111.5 63.5t42.5 196.5t-43 195.5t-111.5 62.5t-111.5 -63.5t-43 -195.5z" />
<glyph unicode="&#xbb;" horiz-adv-x="757" d="M117 236v139l182 207l-182 206v140l256 -285v-123zM385 236v139l182 207l-182 206v140l256 -285v-123z" />
<glyph unicode="&#xbc;" horiz-adv-x="1476" d="M74 1229v74q229 2 239 147h93v-877h-111v656h-221zM184 -61l924 1548h102l-923 -1548h-103zM780 225v74l361 578h123v-578h110v-74h-110v-225h-103v225h-381zM870 299h291v438h-4z" />
<glyph unicode="&#xbd;" horiz-adv-x="1476" d="M74 1229v74q229 2 239 147h93v-877h-111v656h-221zM123 -61l924 1548h102l-924 -1548h-102zM805 600q4 276 280 277q113 0 184.5 -58.5t71.5 -160t-30.5 -161t-118.5 -124.5l-102 -76q-143 -104 -168 -207h424v-90h-535q0 106 47 183t150 159l100 80q70 53 96.5 102 t26.5 118t-43 106.5t-113 37.5t-113 -48t-47 -138h-110z" />
<glyph unicode="&#xbe;" horiz-adv-x="1476" d="M41 809h111q2 -61 46 -110.5t114.5 -49.5t122.5 45t52 125t-51 123t-137 43h-55v90h37q82 0 130 39t48 101.5t-39 103.5t-103.5 41t-108.5 -41t-46 -111h-111q0 113 66.5 177.5t191.5 64.5t192.5 -57.5t67.5 -145.5q0 -176 -151 -211v-4q84 -10 132 -67.5t48 -139.5 q0 -123 -71.5 -194.5t-211.5 -71.5q-264 0 -274 250zM246 -61l923 1548h103l-924 -1548h-102zM780 225v74l361 578h123v-578h110v-74h-110v-225h-103v225h-381zM870 299h291v438h-4z" />
<glyph unicode="&#xbf;" d="M70 -9q0 171 133 312l88 94q63 68 89 127.5t26 149.5v57h122v-72q0 -113 -27.5 -178t-107.5 -149l-86 -92q-106 -115 -106 -260q0 -111 63.5 -182.5t165.5 -71.5q262 0 262 344h131q-2 -201 -99 -324t-276.5 -123t-278.5 98.5t-99 269.5zM397 901v209h140v-209h-140z" />
<glyph unicode="&#xc0;" horiz-adv-x="1024" d="M-2 0l432 1462h164l432 -1462h-139l-119 426h-512l-119 -426h-139zM285 537h454l-225 823h-4zM302 1820h145l154 -288h-99z" />
<glyph unicode="&#xc1;" horiz-adv-x="1024" d="M-2 0l432 1462h164l432 -1462h-139l-119 426h-512l-119 -426h-139zM285 537h454l-225 823h-4zM424 1532l154 288h145l-200 -288h-99z" />
<glyph unicode="&#xc2;" horiz-adv-x="1024" d="M-2 0l432 1462h164l432 -1462h-139l-119 426h-512l-119 -426h-139zM254 1532l197 288h123l197 -288h-123l-136 204l-135 -204h-123zM285 537h454l-225 823h-4z" />
<glyph unicode="&#xc3;" horiz-adv-x="1024" d="M-2 0l432 1462h164l432 -1462h-139l-119 426h-512l-119 -426h-139zM238 1571q4 72 49 136t101.5 64t121.5 -37l54 -30q37 -23 64.5 -23t49 33.5t19.5 64.5h90q-2 -72 -46 -136t-102.5 -64t-109.5 30l-78 43q-33 16 -54.5 16.5t-42 -29.5t-26.5 -68h-90zM285 537h454 l-225 823h-4z" />
<glyph unicode="&#xc4;" horiz-adv-x="1024" d="M-2 0l432 1462h164l432 -1462h-139l-119 426h-512l-119 -426h-139zM285 537h454l-225 823h-4zM297 1575v209h123v-209h-123zM605 1575v209h123v-209h-123z" />
<glyph unicode="&#xc5;" horiz-adv-x="1024" d="M-2 0l432 1462h164l432 -1462h-139l-119 426h-512l-119 -426h-139zM285 537h454l-225 823h-4zM318 1704q0 80 57.5 137t137 57t137 -57t57.5 -137t-57.5 -137.5t-137 -57.5t-137 57.5t-57.5 137.5zM392 1703.5q0 -51.5 34.5 -86t86 -34.5t86 34.5t34.5 86t-34.5 86.5 t-86 35t-86 -35t-34.5 -86.5z" />
<glyph unicode="&#xc6;" horiz-adv-x="1441" d="M-16 0l594 1462h808v-110h-575v-533h537v-110h-537v-598h594v-111h-725v426h-391l-166 -426h-139zM330 537h350v815h-21z" />
<glyph unicode="&#xc7;" horiz-adv-x="1062" d="M102.5 742.5q-0.5 744.5 466.5 744.5q211 0 315.5 -128t104.5 -323h-131q0 154 -75.5 247t-213.5 93q-164 0 -250 -151.5t-86 -493.5t86.5 -493.5t249.5 -151.5q135 0 214 108.5t89 301.5h132q-12 -231 -110.5 -365.5t-270.5 -150.5l-72 -95l4 -2q23 10 79.5 10.5 t102 -39.5t45.5 -109t-68.5 -116t-158.5 -47t-172 41l25 64q61 -31 126.5 -31t101.5 25.5t36 63.5t-32 56.5t-83 18.5t-84 -21l-27 35l101 141q-444 23 -444.5 767.5z" />
<glyph unicode="&#xc8;" horiz-adv-x="909" d="M115 0v1462h725v-110h-594v-533h555v-110h-555v-598h612v-111h-743zM281 1820h145l154 -288h-99z" />
<glyph unicode="&#xc9;" horiz-adv-x="909" d="M115 0v1462h725v-110h-594v-533h555v-110h-555v-598h612v-111h-743zM403 1532l154 288h145l-200 -288h-99z" />
<glyph unicode="&#xca;" horiz-adv-x="909" d="M115 0v1462h725v-110h-594v-533h555v-110h-555v-598h612v-111h-743zM233 1532l197 288h123l197 -288h-123l-136 204l-135 -204h-123z" />
<glyph unicode="&#xcb;" horiz-adv-x="909" d="M115 0v1462h725v-110h-594v-533h555v-110h-555v-598h612v-111h-743zM276 1575v209h123v-209h-123zM584 1575v209h123v-209h-123z" />
<glyph unicode="&#xcc;" horiz-adv-x="376" d="M-22 1820h145l154 -288h-99zM123 0v1462h131v-1462h-131z" />
<glyph unicode="&#xcd;" horiz-adv-x="376" d="M100 1532l154 288h145l-200 -288h-99zM123 0v1462h131v-1462h-131z" />
<glyph unicode="&#xce;" horiz-adv-x="376" d="M-70 1532l197 288h123l197 -288h-123l-136 204l-135 -204h-123zM123 0v1462h131v-1462h-131z" />
<glyph unicode="&#xcf;" horiz-adv-x="376" d="M-27 1575v209h123v-209h-123zM123 0v1462h131v-1462h-131zM281 1575v209h123v-209h-123z" />
<glyph unicode="&#xd0;" horiz-adv-x="1099" d="M0 709v110h115v643h352q305 0 417.5 -175t112.5 -556t-112.5 -556t-417.5 -175h-352v709h-115zM246 111h213q221 0 314 135t93 485t-93 485.5t-314 135.5h-213v-533h327v-110h-327v-598z" />
<glyph unicode="&#xd1;" horiz-adv-x="1099" d="M115 0v1462h176l559 -1274h4v1274h131v-1462h-176l-559 1274h-4v-1274h-131zM276 1571q4 72 49 136t101.5 64t121.5 -37l54 -30q37 -23 64.5 -23t49 33.5t19.5 64.5h90q-2 -72 -46 -136t-102.5 -64t-109.5 30l-78 43q-33 16 -54.5 16.5t-42 -29.5t-26.5 -68h-90z" />
<glyph unicode="&#xd2;" horiz-adv-x="1138" d="M102 731q0 756 467 756t467 -756t-467 -756t-467 756zM233 731q0 -342 86.5 -493.5t250 -151.5t249.5 151.5t86 493.5t-86 493.5t-249.5 151.5t-250 -151.5t-86.5 -493.5zM359 1820h145l154 -288h-99z" />
<glyph unicode="&#xd3;" horiz-adv-x="1138" d="M102 731q0 756 467 756t467 -756t-467 -756t-467 756zM233 731q0 -342 86.5 -493.5t250 -151.5t249.5 151.5t86 493.5t-86 493.5t-249.5 151.5t-250 -151.5t-86.5 -493.5zM481 1532l154 288h145l-200 -288h-99z" />
<glyph unicode="&#xd4;" horiz-adv-x="1138" d="M102 731q0 756 467 756t467 -756t-467 -756t-467 756zM233 731q0 -342 86.5 -493.5t250 -151.5t249.5 151.5t86 493.5t-86 493.5t-249.5 151.5t-250 -151.5t-86.5 -493.5zM311 1532l197 288h123l197 -288h-123l-136 204l-135 -204h-123z" />
<glyph unicode="&#xd5;" horiz-adv-x="1138" d="M102 731q0 756 467 756t467 -756t-467 -756t-467 756zM233 731q0 -342 86.5 -493.5t250 -151.5t249.5 151.5t86 493.5t-86 493.5t-249.5 151.5t-250 -151.5t-86.5 -493.5zM295 1571q4 72 49 136t101.5 64t121.5 -37l54 -30q37 -23 64.5 -23t49 33.5t19.5 64.5h90 q-2 -72 -46 -136t-102.5 -64t-109.5 30l-78 43q-33 16 -54.5 16.5t-42 -29.5t-26.5 -68h-90z" />
<glyph unicode="&#xd6;" horiz-adv-x="1138" d="M102 731q0 756 467 756t467 -756t-467 -756t-467 756zM233 731q0 -342 86.5 -493.5t250 -151.5t249.5 151.5t86 493.5t-86 493.5t-249.5 151.5t-250 -151.5t-86.5 -493.5zM354 1575v209h123v-209h-123zM662 1575v209h123v-209h-123z" />
<glyph unicode="&#xd7;" horiz-adv-x="1228" d="M152 129l391 389l-391 391l73 72l389 -389l390 389l73 -72l-391 -391l391 -389l-73 -72l-390 389l-389 -389z" />
<glyph unicode="&#xd8;" horiz-adv-x="1138" d="M102 731q0 756 467 756q145 0 242 -70l55 131l76 -28l-68 -162q162 -180 162 -627q0 -756 -467 -756q-141 0 -241 70l-56 -131l-75 33l67 159q-162 178 -162 625zM233 736.5q0 -336.5 84 -492.5l449 1054q-76 78 -197 78q-164 0 -250 -151.5t-86 -488zM375 164 q72 -78 194 -78q164 0 250 151.5t86 487.5t-84 494z" />
<glyph unicode="&#xd9;" horiz-adv-x="1024" d="M94 410v1052h131v-1050q0 -326 287 -326t287 326v1050h131v-1052q0 -225 -105.5 -330t-312.5 -105t-312.5 105t-105.5 330zM302 1820h145l154 -288h-99z" />
<glyph unicode="&#xda;" horiz-adv-x="1024" d="M94 410v1052h131v-1050q0 -326 287 -326t287 326v1050h131v-1052q0 -225 -105.5 -330t-312.5 -105t-312.5 105t-105.5 330zM424 1532l154 288h145l-200 -288h-99z" />
<glyph unicode="&#xdb;" horiz-adv-x="1024" d="M94 410v1052h131v-1050q0 -326 287 -326t287 326v1050h131v-1052q0 -225 -105.5 -330t-312.5 -105t-312.5 105t-105.5 330zM254 1532l197 288h123l197 -288h-123l-136 204l-135 -204h-123z" />
<glyph unicode="&#xdc;" horiz-adv-x="1024" d="M94 410v1052h131v-1050q0 -326 287 -326t287 326v1050h131v-1052q0 -225 -105.5 -330t-312.5 -105t-312.5 105t-105.5 330zM297 1575v209h123v-209h-123zM605 1575v209h123v-209h-123z" />
<glyph unicode="&#xdd;" horiz-adv-x="909" d="M-6 1462h139l322 -729l321 729h139l-395 -876v-586h-131v586zM366 1532l154 288h145l-200 -288h-99z" />
<glyph unicode="&#xde;" horiz-adv-x="983" d="M115 0v1462h131v-286h274q197 0 294 -112t97 -300t-105.5 -302t-340.5 -114h-219v-348h-131zM246 459h223q141 0 226 71.5t85 231.5t-85 231.5t-226 71.5h-223v-606z" />
<glyph unicode="&#xdf;" horiz-adv-x="909" d="M106 0v1104q0 182 90.5 278.5t248.5 96.5t245.5 -89.5t87.5 -248.5q0 -104 -51 -189.5t-162 -107.5v-4q84 -10 143.5 -51t87.5 -103q52 -117 52 -244q0 -213 -105.5 -333.5t-287.5 -120.5q-53 0 -84 12v102q25 -12 67 -12q123 0 201 91t78 270q0 328 -291 327h-45v103h35 q109 0 170 64.5t61 181.5t-52 183t-153 66q-213 0 -213 -284v-1092h-123z" />
<glyph unicode="&#xe0;" d="M61 283q0 240 220 301l231 65q66 18 85 49t19 123q0 188 -188 189q-209 0 -209 -246h-123q0 348 336 348q307 0 307 -289v-643q0 -90 64 -90h35v-90q-35 -12 -58 -12q-80 0 -118.5 27.5t-38.5 107.5v37h-5q-63 -184 -280 -185q-139 0 -208 81t-69 227zM193 290 q0 -95 46 -153.5t126 -58.5q115 0 183 82t68 225v229h-4q-14 -43 -131 -71l-102 -27q-94 -25 -140 -78t-46 -148zM226 1511h145l154 -288h-99z" />
<glyph unicode="&#xe1;" d="M61 283q0 240 220 301l231 65q66 18 85 49t19 123q0 188 -188 189q-209 0 -209 -246h-123q0 348 336 348q307 0 307 -289v-643q0 -90 64 -90h35v-90q-35 -12 -58 -12q-80 0 -118.5 27.5t-38.5 107.5v37h-5q-63 -184 -280 -185q-139 0 -208 81t-69 227zM193 290 q0 -95 46 -153.5t126 -58.5q115 0 183 82t68 225v229h-4q-14 -43 -131 -71l-102 -27q-94 -25 -140 -78t-46 -148zM348 1223l154 288h145l-200 -288h-99z" />
<glyph unicode="&#xe2;" d="M61 283q0 240 220 301l231 65q66 18 85 49t19 123q0 188 -188 189q-209 0 -209 -246h-123q0 348 336 348q307 0 307 -289v-643q0 -90 64 -90h35v-90q-35 -12 -58 -12q-80 0 -118.5 27.5t-38.5 107.5v37h-5q-63 -184 -280 -185q-139 0 -208 81t-69 227zM178 1223l197 288 h123l197 -288h-123l-136 204l-135 -204h-123zM193 290q0 -95 46 -153.5t126 -58.5q115 0 183 82t68 225v229h-4q-14 -43 -131 -71l-102 -27q-94 -25 -140 -78t-46 -148z" />
<glyph unicode="&#xe3;" d="M61 283q0 240 220 301l231 65q66 18 85 49t19 123q0 188 -188 189q-209 0 -209 -246h-123q0 348 336 348q307 0 307 -289v-643q0 -90 64 -90h35v-90q-35 -12 -58 -12q-80 0 -118.5 27.5t-38.5 107.5v37h-5q-63 -184 -280 -185q-139 0 -208 81t-69 227zM162 1262 q4 72 49 136t101.5 64t121.5 -37l54 -30q37 -23 64.5 -23t49 33.5t19.5 64.5h90q-2 -72 -46 -136t-102.5 -64t-109.5 30l-78 43q-33 16 -54.5 16.5t-42 -29.5t-26.5 -68h-90zM193 290q0 -95 46 -153.5t126 -58.5q115 0 183 82t68 225v229h-4q-14 -43 -131 -71l-102 -27 q-94 -25 -140 -78t-46 -148z" />
<glyph unicode="&#xe4;" d="M61 283q0 240 220 301l231 65q66 18 85 49t19 123q0 188 -188 189q-209 0 -209 -246h-123q0 348 336 348q307 0 307 -289v-643q0 -90 64 -90h35v-90q-35 -12 -58 -12q-80 0 -118.5 27.5t-38.5 107.5v37h-5q-63 -184 -280 -185q-139 0 -208 81t-69 227zM193 290 q0 -95 46 -153.5t126 -58.5q115 0 183 82t68 225v229h-4q-14 -43 -131 -71l-102 -27q-94 -25 -140 -78t-46 -148zM221 1266v209h123v-209h-123zM529 1266v209h123v-209h-123z" />
<glyph unicode="&#xe5;" d="M61 283q0 240 220 301l231 65q66 18 85 49t19 123q0 188 -188 189q-209 0 -209 -246h-123q0 348 336 348q307 0 307 -289v-643q0 -90 64 -90h35v-90q-35 -12 -58 -12q-80 0 -118.5 27.5t-38.5 107.5v37h-5q-63 -184 -280 -185q-139 0 -208 81t-69 227zM193 290 q0 -95 46 -153.5t126 -58.5q115 0 183 82t68 225v229h-4q-14 -43 -131 -71l-102 -27q-94 -25 -140 -78t-46 -148zM242 1395q0 80 57.5 137t137 57t137 -57t57.5 -137t-57.5 -137.5t-137 -57.5t-137 57.5t-57.5 137.5zM316 1394.5q0 -51.5 34.5 -86t86 -34.5t86 34.5t34.5 86 t-34.5 86.5t-86 35t-86 -35t-34.5 -86.5z" />
<glyph unicode="&#xe6;" horiz-adv-x="1327" d="M61 277.5q0 140.5 60.5 209t208.5 107.5l147 39q61 18 83 49t22 129.5t-39 148.5t-129 50q-195 0 -195 -246h-123q0 170 81 259t241 89q98 0 167.5 -44t90.5 -132h4q27 84 97.5 130t156.5 46q180 0 256 -137t76 -436h-561v-60q0 -199 58 -300t151.5 -101t154.5 80t64 202 h122q-10 -184 -98 -284.5t-235 -100.5q-209 0 -281 226h-4q-61 -225 -299 -226q-139 0 -208 81t-69 221.5zM193 288q0 -93 46 -151.5t128 -58.5t148.5 70.5t66.5 209.5v228h-4q-19 -27 -93 -45l-127 -35q-92 -25 -128.5 -75t-36.5 -143zM705 641h430q-2 369 -213 369 t-217 -369z" />
<glyph unicode="&#xe7;" horiz-adv-x="833" d="M61 545q0 281 96.5 424t264.5 143t254 -90t96 -258h-123q-10 127 -62 186.5t-159 59.5t-171 -100.5t-64 -366.5q0 -324 101 -419q32 -30 61.5 -38t68.5 -8q195 0 225 282h123q-12 -156 -86 -257t-194 -123l-74 -95l4 -2q23 10 79.5 10.5t102 -39.5t45.5 -109t-68.5 -116 t-158.5 -47t-172 41l24 64q61 -31 127 -31t102 25.5t36 63.5t-32 56.5t-83 18.5t-84 -21l-27 35l101 141q-352 10 -353 570z" />
<glyph unicode="&#xe8;" d="M74 545q0 281 96 424t277.5 143t266.5 -128t85 -400v-45h-594v-52q0 -219 64.5 -314t166.5 -95q199 -1 230 282h122q-14 -176 -106 -280.5t-244 -104.5q-365 0 -364 570zM205 641h463q-2 199 -58.5 284t-173.5 85t-173 -85t-58 -284zM236 1511h145l154 -288h-99z" />
<glyph unicode="&#xe9;" d="M74 545q0 281 96 424t277.5 143t266.5 -128t85 -400v-45h-594v-52q0 -219 64.5 -314t166.5 -95q199 -1 230 282h122q-14 -176 -106 -280.5t-244 -104.5q-365 0 -364 570zM205 641h463q-2 199 -58.5 284t-173.5 85t-173 -85t-58 -284zM358 1223l154 288h145l-200 -288h-99 z" />
<glyph unicode="&#xea;" d="M74 545q0 281 96 424t277.5 143t266.5 -128t85 -400v-45h-594v-52q0 -219 64.5 -314t166.5 -95q199 -1 230 282h122q-14 -176 -106 -280.5t-244 -104.5q-365 0 -364 570zM188 1223l197 288h123l197 -288h-123l-136 204l-135 -204h-123zM205 641h463q-2 199 -58.5 284 t-173.5 85t-173 -85t-58 -284z" />
<glyph unicode="&#xeb;" d="M74 545q0 281 96 424t277.5 143t266.5 -128t85 -400v-45h-594v-52q0 -219 64.5 -314t166.5 -95q199 -1 230 282h122q-14 -176 -106 -280.5t-244 -104.5q-365 0 -364 570zM205 641h463q-2 199 -58.5 284t-173.5 85t-173 -85t-58 -284zM231 1266v209h123v-209h-123z M539 1266v209h123v-209h-123z" />
<glyph unicode="&#xec;" horiz-adv-x="376" d="M-22 1511h145l154 -288h-99zM127 0v1087h123v-1087h-123z" />
<glyph unicode="&#xed;" horiz-adv-x="376" d="M100 1223l154 288h145l-200 -288h-99zM127 0v1087h123v-1087h-123z" />
<glyph unicode="&#xee;" horiz-adv-x="376" d="M-70 1223l197 288h123l197 -288h-123l-136 204l-135 -204h-123zM127 0v1087h123v-1087h-123z" />
<glyph unicode="&#xef;" horiz-adv-x="376" d="M-27 1266v209h123v-209h-123zM127 0v1087h123v-1087h-123zM281 1266v209h123v-209h-123z" />
<glyph unicode="&#xf0;" d="M61 529q0 269 96.5 413.5t256.5 144.5q125 0 200 -108l4 4q-106 182 -235 326l-141 -84l-78 65l151 90q-51 57 -149 140l96 65q92 -78 156 -147l147 86l74 -62l-154 -92q326 -354 326 -825q0 -281 -96.5 -425.5t-277.5 -144.5t-278.5 142.5t-97.5 411.5zM193 532 q0 -455 243.5 -454.5t243.5 454.5q0 238 -66.5 345.5t-177 107.5t-177 -107.5t-66.5 -345.5z" />
<glyph unicode="&#xf1;" horiz-adv-x="909" d="M119 0v1087h110v-151h4q90 176 279 176q131 0 205 -71.5t74 -219.5v-821h-123v786q0 223 -187 224q-109 0 -174 -77t-65 -202v-731h-123zM180 1262q4 72 49 136t101.5 64t121.5 -37l54 -30q37 -23 64.5 -23t49 33.5t19.5 64.5h90q-2 -72 -46 -136t-102.5 -64t-109.5 30 l-78 43q-33 16 -54.5 16.5t-42 -29.5t-26.5 -68h-90z" />
<glyph unicode="&#xf2;" d="M61 544.5q0 280.5 96.5 424t278.5 143.5t278.5 -143.5t96.5 -424t-96.5 -425t-278.5 -144.5t-278.5 144.5t-96.5 425zM193 544q0 -466 243.5 -466t243.5 466t-243.5 466t-243.5 -466zM226 1511h145l154 -288h-99z" />
<glyph unicode="&#xf3;" d="M61 544.5q0 280.5 96.5 424t278.5 143.5t278.5 -143.5t96.5 -424t-96.5 -425t-278.5 -144.5t-278.5 144.5t-96.5 425zM193 544q0 -466 243.5 -466t243.5 466t-243.5 466t-243.5 -466zM348 1223l154 288h145l-200 -288h-99z" />
<glyph unicode="&#xf4;" d="M61 544.5q0 280.5 96.5 424t278.5 143.5t278.5 -143.5t96.5 -424t-96.5 -425t-278.5 -144.5t-278.5 144.5t-96.5 425zM178 1223l197 288h123l197 -288h-123l-136 204l-135 -204h-123zM193 544q0 -466 243.5 -466t243.5 466t-243.5 466t-243.5 -466z" />
<glyph unicode="&#xf5;" d="M61 544.5q0 280.5 96.5 424t278.5 143.5t278.5 -143.5t96.5 -424t-96.5 -425t-278.5 -144.5t-278.5 144.5t-96.5 425zM162 1262q4 72 49 136t101.5 64t121.5 -37l54 -30q37 -23 64.5 -23t49 33.5t19.5 64.5h90q-2 -72 -46 -136t-102.5 -64t-109.5 30l-78 43 q-33 16 -54.5 16.5t-42 -29.5t-26.5 -68h-90zM193 544q0 -466 243.5 -466t243.5 466t-243.5 466t-243.5 -466z" />
<glyph unicode="&#xf6;" d="M61 544.5q0 280.5 96.5 424t278.5 143.5t278.5 -143.5t96.5 -424t-96.5 -425t-278.5 -144.5t-278.5 144.5t-96.5 425zM193 544q0 -466 243.5 -466t243.5 466t-243.5 466t-243.5 -466zM221 1266v209h123v-209h-123zM529 1266v209h123v-209h-123z" />
<glyph unicode="&#xf7;" horiz-adv-x="1228" d="M96 467v102h1037v-102h-1037zM502 96q0 47 33.5 80t78.5 33t79 -33t34 -80t-34 -79.5t-79 -32.5t-78.5 32.5t-33.5 79.5zM502 940q0 47 33.5 80t78.5 33t79 -33t34 -80t-34 -80t-79 -33t-78.5 33t-33.5 80z" />
<glyph unicode="&#xf8;" d="M62 520q-1 592 374 592q102 0 174 -45l56 133l77 -33l-65 -153q133 -139 133 -444q0 -595 -375 -595q-104 0 -174 48l-57 -136l-76 31l66 156q-133 139 -133 446zM193 545q0 -223 57 -338l315 754q-51 49 -129 49q-244 0 -243 -465zM307 129q51 -51 129 -51 q244 0 244 467q0 225 -57 336z" />
<glyph unicode="&#xf9;" horiz-adv-x="909" d="M119 266v821h123v-765q0 -131 45 -187.5t146 -56.5t168 76.5t67 201.5v731h123v-1087h-111v152h-4q-90 -176 -279 -177q-131 0 -204.5 72t-73.5 219zM244 1511h145l154 -288h-99z" />
<glyph unicode="&#xfa;" horiz-adv-x="909" d="M119 266v821h123v-765q0 -131 45 -187.5t146 -56.5t168 76.5t67 201.5v731h123v-1087h-111v152h-4q-90 -176 -279 -177q-131 0 -204.5 72t-73.5 219zM366 1223l154 288h145l-200 -288h-99z" />
<glyph unicode="&#xfb;" horiz-adv-x="909" d="M119 266v821h123v-765q0 -131 45 -187.5t146 -56.5t168 76.5t67 201.5v731h123v-1087h-111v152h-4q-90 -176 -279 -177q-131 0 -204.5 72t-73.5 219zM196 1223l197 288h123l197 -288h-123l-136 204l-135 -204h-123z" />
<glyph unicode="&#xfc;" horiz-adv-x="909" d="M119 266v821h123v-765q0 -131 45 -187.5t146 -56.5t168 76.5t67 201.5v731h123v-1087h-111v152h-4q-90 -176 -279 -177q-131 0 -204.5 72t-73.5 219zM239 1266v209h123v-209h-123zM547 1266v209h123v-209h-123z" />
<glyph unicode="&#xfd;" horiz-adv-x="757" d="M14 1087h131l244 -942h4l219 942h131l-317 -1175q-43 -160 -103.5 -216t-185.5 -56q-33 0 -82 4v102q53 -4 96 -4q102 0 146 145l31 103zM290 1223l154 288h145l-200 -288h-99z" />
<glyph unicode="&#xfe;" horiz-adv-x="909" d="M106 -360v1822h123v-555h4q25 92 95.5 148.5t158.5 56.5q348 0 348.5 -568t-348.5 -569q-100 0 -166.5 50.5t-87.5 138.5h-4v-524h-123zM229 542.5q0 -145.5 18.5 -241.5t54.5 -142t74 -63.5t90 -17.5t91 17.5t75 63.5q73 93 73 384q0 294 -74 386q-37 46 -75 63.5 t-90 17.5t-90 -17.5t-74 -63.5t-54.5 -143.5t-18.5 -243z" />
<glyph unicode="&#xff;" horiz-adv-x="757" d="M14 1087h131l244 -942h4l219 942h131l-317 -1175q-43 -160 -103.5 -216t-185.5 -56q-33 0 -82 4v102q53 -4 96 -4q102 0 146 145l31 103zM163 1266v209h123v-209h-123zM471 1266v209h123v-209h-123z" />
<glyph unicode="&#x152;" horiz-adv-x="1593" d="M86 731q0 756 467 756q205 0 283 -144h4v119h694v-110h-563v-533h524v-110h-524v-598h581v-111h-712v131h-4q-63 -156 -283 -156q-467 0 -467 756zM217 731q0 -342 86 -493.5t244 -151.5t225.5 92t67.5 307v521q0 209 -66.5 289.5t-225.5 80.5t-245 -151.5t-86 -493.5z " />
<glyph unicode="&#x153;" horiz-adv-x="1441" d="M78 544.5q0 280.5 96 424t279 143.5q109 0 185.5 -57.5t106.5 -169.5h5q59 227 282 227q180 0 256 -137t76 -436h-561v-60q0 -199 58.5 -300t151.5 -101t154.5 79.5t63.5 202.5h123q-10 -184 -98.5 -284.5t-235.5 -100.5q-205 0 -283 226h-4q-31 -109 -103.5 -167.5 t-176.5 -58.5q-182 0 -278.5 144.5t-96.5 425zM209 544q0 -245 64.5 -355.5t171 -110.5t171 110.5t64.5 355.5t-64.5 355.5t-171 110.5t-171 -110.5t-64.5 -355.5zM803 641h430q-2 369 -213 369t-217 -369z" />
<glyph unicode="&#x178;" horiz-adv-x="909" d="M-6 1462h139l322 -729l321 729h139l-395 -876v-586h-131v586zM239 1575v209h123v-209h-123zM547 1575v209h123v-209h-123z" />
<glyph unicode="&#x2c6;" horiz-adv-x="380" d="M-68 1223l197 288h123l197 -288h-123l-136 204l-135 -204h-123z" />
<glyph unicode="&#x2dc;" horiz-adv-x="380" d="M-84 1262q4 72 49 136t101.5 64t121.5 -37l54 -30q37 -23 64.5 -23t49 33.5t19.5 64.5h90q-2 -72 -46 -136t-102.5 -64t-109.5 30l-78 43q-33 16 -54.5 16.5t-42 -29.5t-26.5 -68h-90z" />
<glyph unicode="&#x2000;" horiz-adv-x="949" />
<glyph unicode="&#x2001;" horiz-adv-x="1898" />
<glyph unicode="&#x2002;" horiz-adv-x="949" />
<glyph unicode="&#x2003;" horiz-adv-x="1898" />
<glyph unicode="&#x2004;" horiz-adv-x="632" />
<glyph unicode="&#x2005;" horiz-adv-x="474" />
<glyph unicode="&#x2006;" horiz-adv-x="316" />
<glyph unicode="&#x2007;" horiz-adv-x="316" />
<glyph unicode="&#x2008;" horiz-adv-x="237" />
<glyph unicode="&#x2009;" horiz-adv-x="379" />
<glyph unicode="&#x200a;" horiz-adv-x="105" />
<glyph unicode="&#x2010;" horiz-adv-x="681" d="M119 526v111h444v-111h-444z" />
<glyph unicode="&#x2011;" horiz-adv-x="681" d="M119 526v111h444v-111h-444z" />
<glyph unicode="&#x2012;" horiz-adv-x="681" d="M119 526v111h444v-111h-444z" />
<glyph unicode="&#x2013;" horiz-adv-x="1024" d="M0 526v111h1024v-111h-1024z" />
<glyph unicode="&#x2014;" horiz-adv-x="2048" d="M0 526v111h2048v-111h-2048z" />
<glyph unicode="&#x2018;" horiz-adv-x="491" d="M170 971v209q0 227 152 282v-82q-70 -43 -72 -200h59v-209h-139z" />
<glyph unicode="&#x2019;" horiz-adv-x="491" d="M170 971v82q70 43 72 200h-60v209h140v-209q0 -227 -152 -282z" />
<glyph unicode="&#x201a;" horiz-adv-x="491" d="M170 -201q70 43 72 201h-60v209h140v-209q0 -227 -152 -283v82z" />
<glyph unicode="&#x201c;" horiz-adv-x="720" d="M150 971v209q0 227 151 282v-82q-70 -43 -72 -200h60v-209h-139zM420 971v209q0 227 151 282v-82q-70 -43 -71 -200h59v-209h-139z" />
<glyph unicode="&#x201d;" horiz-adv-x="720" d="M150 971v82q70 43 71 200h-59v209h139v-209q0 -227 -151 -282zM420 971v82q70 43 72 200h-60v209h139v-209q0 -227 -151 -282z" />
<glyph unicode="&#x201e;" horiz-adv-x="720" d="M150 -201q70 43 71 201h-59v209h139v-209q0 -227 -151 -283v82zM420 -201q70 43 72 201h-60v209h139v-209q0 -227 -151 -283v82z" />
<glyph unicode="&#x2022;" horiz-adv-x="1024" d="M147 731.5q0 149.5 106.5 257t258.5 107.5t258.5 -107.5t106.5 -257t-106.5 -257t-258.5 -107.5t-258.5 107.5t-106.5 257z" />
<glyph unicode="&#x2026;" horiz-adv-x="2048" d="M272 0v209h140v-209h-140zM954 0v209h140v-209h-140zM1636 0v209h140v-209h-140z" />
<glyph unicode="&#x202f;" horiz-adv-x="379" />
<glyph unicode="&#x2039;" horiz-adv-x="493" d="M119 520v123l256 285v-140l-182 -206l182 -207v-139z" />
<glyph unicode="&#x203a;" horiz-adv-x="493" d="M119 236v139l182 207l-182 206v140l256 -285v-123z" />
<glyph unicode="&#x205f;" horiz-adv-x="474" />
<glyph unicode="&#x2122;" horiz-adv-x="2027" d="M86 1372v90h655v-90h-276v-754h-103v754h-276zM893 618v844h176l270 -684l263 684h176v-844h-103v754h-4l-305 -754h-61l-306 754h-4v-754h-102z" />
<glyph unicode="&#xe000;" horiz-adv-x="1085" d="M0 0v1085h1085v-1085h-1085z" />
<glyph unicode="&#xfb01;" d="M14 985v102h150v130q0 129 47 195.5t190 66.5q45 0 78 -6v-103q-29 6 -59 6q-70 0 -101.5 -34.5t-31.5 -124.5v-130h192v-102h-192v-985h-123v985h-150zM623 0v1087h122v-1087h-122zM623 1253v209h122v-209h-122z" />
<glyph unicode="&#xfb02;" d="M14 985v102h150v130q0 129 47 195.5t190 66.5q45 0 78 -6v-103q-29 6 -59 6q-70 0 -101.5 -34.5t-31.5 -124.5v-130h192v-102h-192v-985h-123v985h-150zM623 0v1462h122v-1462h-122z" />
</font>
</defs>
</svg>
